{"title":"Sleepaway Camp 3 Teenage Wasteland 1989 1080 fiveofseven zombiRG","uid":15343553,"size":2357250026,"categoryP":"video","categoryS":"hd___movies","magnet":"?xt=urn:btih:f2b78d718974cbb0dd37f0c39fac53391594f023&amp;dn=Sleepaway+Camp+3+Teenage+Wasteland+1989+1080+fiveofseven+zombiRG&amp;tr=udp%3A%2F%2Ftracker.leechers-paradise.org%3A6969&amp;tr=udp%3A%2F%2Fzer0day.ch%3A1337&amp;tr=udp%3A%2F%2Fopen.demonii.com%3A1337&amp;tr=udp%3A%2F%2Ftracker.coppersurfer.tk%3A6969&amp;tr=udp%3A%2F%2Fexodus.desync.com%3A6969","seeders":2,"leechers":1,"uploader":"fiveofseven","files":3,"time":1468868754,"description":"\nPLOT - After murdering a young girl, Angela Baker assumes her \r\nidentity and travels to Camp New Horizons, built on the grounds \r\nof the camp she terrorized the year before, and starts killing again.\r\n\r\n\r\nINFO\r\n\r\nEncoder: fiveofseven\r\nSource: Blu-Ray\r\nRating: R\r\nGenre: Comedy, Horror\r\nSubtitles: English\r\nPoster: \r  https://yuq.me/users/25/564/DPeEF9snNv.jpg \r\n\r\nGeneral\r\nComplete name                            : Sleepaway Camp 3 Teenage Wasteland 1080p (fiveofseven zombiRG).mp4\r\nFormat                                   : MPEG-4\r\nCodec ID                                 : M4V \r\nFile size                                : 2.18 GiB\r\nDuration                                 : 1h 19mn\r\nOverall bit rate mode                    : Variable\r\nOverall bit rate                         : 3 928 Kbps\r\nEncoded date                             : UTC 2016-06-06 22:21:49\r\nTagged date                              : UTC 2016-06-07 12:58:30\r\nWriting application                      : My MP4Box GUI 0.6.0.6 &lt;http://my-mp4box-gui.zymichost.com&gt;\r\n\r\nVideo\r\nID                                       : 1\r\nFormat                                   : AVC\r\nFormat/Info                              : Advanced Video Codec\r\nFormat profile                           :   \r\nFormat settings, CABAC                   : Yes\r\nFormat settings, ReFrames                : 6 frames\r\nCodec ID                                 : avc1\r\nCodec ID/Info                            : Advanced Video Coding\r\nDuration                                 : 1h 19mn\r\nBit rate                                 : 3 800 Kbps\r\nMaximum bit rate                         : 11.8 Mbps\r\nWidth                                    : 1 920 pixels\r\nHeight                                   : 1 040 pixels\r\nDisplay aspect ratio                     : 1.85:1\r\nFrame rate mode                          : Constant\r\nFrame rate                               : 23.976 fps\r\nColor space                              : YUV\r\nChroma subsampling                       : 4:2:0\r\nBit depth                                : 8 bits\r\nScan type                                : Progressive\r\nBits/(Pixel*Frame)                       : 0.079\r\nStream size                              : 2.11 GiB (97%)\r\nTitle                                    : SC3 1080p.mp4\r\nWriting library                          : x264 core 148 r2638 7599210\r\nLanguage                                 : English\r\nEncoded date                             : UTC 2016-06-06 21:41:37\r\nTagged date                              : UTC 2016-06-06 22:23:57\r\n\r\nAudio\r\nID                                       : 2\r\nFormat                                   : AAC\r\nFormat/Info                              : Advanced Audio Codec\r\nFormat profile                           : LC\r\nCodec ID                                 : 40\r\nDuration                                 : 1h 19mn\r\nBit rate mode                            : Variable\r\nBit rate                                 : 128 Kbps\r\nMaximum bit rate                         : 135 Kbps\r\nChannel count                            : 2 channels\r\nChannel positions                        : Front: L R\r\nSampling rate                            : 48.0 KHz\r\nCompression mode                         : Lossy\r\nDelay relative to video                  : 83ms\r\nStream size                              : 72.7 MiB (3%)\r\nTitle                                    : aac.mp4\r\nLanguage                                 : English\r\nEncoded date                             : UTC 2016-06-06 22:23:52\r\nTagged date                              : UTC 2016-06-06 22:23:57\r\n\r\n\r\nScreenshots - \r\n  \nhttps://yuq.me/users/25/564/EgCSAHf7Yj.jpg \r\n  \nhttps://yuq.me/users/25/564/cBIORovLTl.jpg \r\n  \nhttps://yuq.me/users/25/564/J6UNB8Hic1.jpg \r\n  \nhttps://yuq.me/users/25/564/lMzkNx7QBZ.jpg \r\n \r\nsignature \r\n  \nhttps://yuq.me/users/25/564/aegRQCBILx.png","torrent":{"xt":"urn:btih:f2b78d718974cbb0dd37f0c39fac53391594f023","amp;dn":"Sleepaway+Camp+3+Teenage+Wasteland+1989+1080+fiveofseven+zombiRG","amp;tr":["udp%3A%2F%2Ftracker.leechers-paradise.org%3A6969","udp%3A%2F%2Fzer0day.ch%3A1337","udp%3A%2F%2Fopen.demonii.com%3A1337","udp%3A%2F%2Ftracker.coppersurfer.tk%3A6969","udp%3A%2F%2Fexodus.desync.com%3A6969"],"infoHash":"f2b78d718974cbb0dd37f0c39fac53391594f023","infoHashBuffer":{"type":"Buffer","data":[242,183,141,113,137,116,203,176,221,55,240,195,159,172,83,57,21,148,240,35]},"announce":[],"urlList":[]}}